<?xml version="1.0" encoding="utf-8" standalone="no"?>
<svg
  version="1.1"
  id="svg304"
  xmlns="http://www.w3.org/2000/svg"
  xmlns:xlink="http://www.w3.org/1999/xlink"
  viewBox="54 98 100 100"
  preserveAspectRatio="xMidYMid meet"
  width="500"
  height="500">
 
  <defs>
    <!-- 逆マスクを作成（卵型の部分を透明にする） -->
    <mask id="inverse-mask">
      <!-- 全面を黒（不透明）にする -->
      <rect x="54" y="98" width="100%" height="100%" fill="white"/>
      <!-- 卵型の部分だけ黒（透明にする） -->
      <path
        d="m 109.26504,103.97545 c 11.92389,3.98639 23.42757,19.9666 26.91695,37.42973 4.09534,20.49576 -0.81139,37.7825 -13.47612,47.30749 -5.82083,4.37445 -11.64166,6.42056 -18.23861,6.38528 -6.773329,-0.0353 -12.453051,-2.01083 -18.168051,-6.31472 -11.183056,-8.46667 -16.439444,-23.03639 -14.640278,-40.3225 2.046111,-19.26166 11.897004,-36.24961 24.976666,-43.14472 4.453433,-2.34768 8.360833,-2.75167 12.629443,-1.34056 z"
        fill="black"/>
    </mask>
  </defs>

  <g id="layer1">
    <!-- 背景を明るい灰色で塗る（マスクを適用） -->
    <rect x="54" y="98" width="100%" height="100%" fill="lightgray" mask="url(#inverse-mask)" />

    <!-- 元の卵型の黒ストローク -->
    <path
      d="m 109.26504,103.97545 c 11.92389,3.98639 23.42757,19.9666 26.91695,37.42973 4.09534,20.49576 -0.81139,37.7825 -13.47612,47.30749 -5.82083,4.37445 -11.64166,6.42056 -18.23861,6.38528 -6.773329,-0.0353 -12.453051,-2.01083 -18.168051,-6.31472 -11.183056,-8.46667 -16.439444,-23.03639 -14.640278,-40.3225 2.046111,-19.26166 11.897004,-36.24961 24.976666,-43.14472 4.453433,-2.34768 8.360833,-2.75167 12.629443,-1.34056 z"
      style="fill: none; stroke: black; stroke-width: 2;"
      id="path299" />
  </g>
</svg>

